<mxfile host="app.diagrams.net" modified="2024-03-10T13:29:43.868Z" agent="Mozilla/5.0 (Windows NT 10.0; Win64; x64) AppleWebKit/537.36 (KHTML, like Gecko) Chrome/122.0.0.0 Safari/537.36" version="24.0.4" etag="I2TOGMJdHkx4BdO8fm6y" type="github">
  <diagram name="Page-1" id="m7RKMWhnyvz1cb9sZZLz">
    <mxGraphModel>
      <root>
        <mxCell id="0" />
        <mxCell id="1" parent="0" />
      </root>
    </mxGraphModel>
  </diagram>
</mxfile>
